<?xml version="1.0" encoding="UTF-8"?>
<svg xmlns="http://www.w3.org/2000/svg" viewBox="0 0 1376 768" width="1376" height="768" role="img" aria-hidden="true">
  <defs>
    <linearGradient id="bg" x1="0%" y1="100%" x2="100%" y2="0%">
      <stop offset="0%" stop-color="#0F0C44"/>
      <stop offset="60%" stop-color="#17135C"/>
      <stop offset="100%" stop-color="#1A1A2E"/>
    </linearGradient>
    <pattern id="grid" width="60" height="60" patternUnits="userSpaceOnUse">
      <path d="M 60 0 L 0 0 0 60" fill="none" stroke="#BDC9DD" stroke-width="0.5" opacity="0.08"/>
    </pattern>
  </defs>
  <rect width="100%" height="100%" fill="url(#bg)"/>
  <rect width="100%" height="100%" fill="url(#grid)"/>
  <line x1="100" y1="100" x2="1276" y2="100" stroke="#BDC9DD" stroke-width="1" opacity="0.1"/><line x1="100" y1="160" x2="1276" y2="160" stroke="#BDC9DD" stroke-width="1" opacity="0.1"/><line x1="100" y1="220" x2="1276" y2="220" stroke="#BDC9DD" stroke-width="1" opacity="0.1"/><line x1="100" y1="280" x2="1276" y2="280" stroke="#BDC9DD" stroke-width="1" opacity="0.1"/><line x1="100" y1="340" x2="1276" y2="340" stroke="#BDC9DD" stroke-width="1" opacity="0.1"/><line x1="100" y1="400" x2="1276" y2="400" stroke="#BDC9DD" stroke-width="1" opacity="0.1"/><line x1="100" y1="460" x2="1276" y2="460" stroke="#BDC9DD" stroke-width="1" opacity="0.1"/><line x1="100" y1="520" x2="1276" y2="520" stroke="#C8A45A" stroke-width="3" opacity="0.7"/><line x1="100" y1="580" x2="1276" y2="580" stroke="#BDC9DD" stroke-width="1" opacity="0.1"/><line x1="100" y1="640" x2="1276" y2="640" stroke="#BDC9DD" stroke-width="1" opacity="0.1"/><line x1="100" y1="700" x2="1276" y2="700" stroke="#BDC9DD" stroke-width="1" opacity="0.1"/><line x1="100" y1="760" x2="1276" y2="760" stroke="#BDC9DD" stroke-width="1" opacity="0.1"/><line x1="608" y1="40" x2="608" y2="728" stroke="#C8A45A" stroke-width="1.5" opacity="0.4"/>
  <polygon points="354,168 250.07695154586736,348 457.92304845413264,348" fill="none" stroke="#C8A45A" stroke-width="2" opacity="0.18"/>
</svg>
